<?xml version="1.0" encoding="utf-8"?>
<!-- Generator: Adobe Illustrator 24.1.0, SVG Export Plug-In . SVG Version: 6.00 Build 0)  -->
<svg version="1.1" id="Layer_1" xmlns="http://www.w3.org/2000/svg" xmlns:xlink="http://www.w3.org/1999/xlink" x="0px" y="0px"
	 viewBox="0 0 546 387" style="enable-background:new 0 0 546 387;" xml:space="preserve">
<style type="text/css">
	.st0{fill:#FCEE21;}
	.st1{fill:none;stroke:#000000;stroke-miterlimit:10;}
	.st2{font-family:'MyriadPro-Regular';}
	.st3{font-size:12px;}
</style>
<rect x="148" y="37" class="st0" width="126" height="203"/>
<g>
	<path d="M147.37,38.32v307h-126v-307H147.37 M148.37,37.32h-128v309h128V37.32L148.37,37.32z"/>
</g>
<g>
	<path d="M274.37,38.32v307h-126v-307H274.37 M275.37,37.32h-128v309h128V37.32L275.37,37.32z"/>
</g>
<g>
	<path d="M401.37,38.32v307h-126v-307H401.37 M402.37,37.32h-128v309h128V37.32L402.37,37.32z"/>
</g>
<g>
	<path d="M528.37,38.32v307h-126v-307H528.37 M529.37,37.32h-128v309h128V37.32L529.37,37.32z"/>
</g>
<g>
	<line class="st1" x1="20.87" y1="130.82" x2="529.37" y2="130.82"/>
</g>
<g>
	<line class="st1" x1="21.37" y1="239.82" x2="529.37" y2="239.82"/>
</g>
<text transform="matrix(1 0 0 1 17.9565 22.1304)" class="st2 st3">1</text>
<text transform="matrix(1 0 0 1 145.3779 21.6045)" class="st2 st3">2</text>
<text transform="matrix(1 0 0 1 272.1768 21.4102)" class="st2 st3">3</text>
<text transform="matrix(1 0 0 1 398.7607 22.2837)" class="st2 st3">4</text>
<text transform="matrix(1 0 0 1 524.5898 21.7305)" class="st2 st3">5</text>
<text transform="matrix(1 0 0 1 15.9204 365.3115)" class="st2 st3">-5</text>
<text transform="matrix(1 0 0 1 143.3779 365.6807)" class="st2 st3">-4</text>
<text transform="matrix(1 0 0 1 269.8271 365.6514)" class="st2 st3">-3</text>
<text transform="matrix(1 0 0 1 396.1113 366.1465)" class="st2 st3">-2</text>
<text transform="matrix(1 0 0 1 523.627 365.8262)" class="st2 st3">-1</text>
</svg>
